Coordinates
version=1
nRows=9
nColumns=24
inDegrees=yes

Units are S.I. units (second, meters, Newtons, ...)
Angles are in degrees.

endheader
time	pelvis_tilt	pelvis_list	pelvis_rotation	pelvis_tx	pelvis_ty	pelvis_tz	hip_flexion_r	hip_adduction_r	hip_rotation_r	knee_angle_r	ankle_angle_r	subtalar_angle_r	mtp_angle_r	hip_flexion_l	hip_adduction_l	hip_rotation_l	knee_angle_l	ankle_angle_l	subtalar_angle_l	mtp_angle_l	lumbar_extension	lumbar_bending	lumbar_rotation
      2.17500000	      9.79551993	     -1.48237754	      4.52512862	      0.57457309	      1.01179640	      0.04413415	      2.14949528	     -0.20664261	    -17.71360407	    -20.25440921	     -0.56011276	     10.24837721	      3.77874608	      0.41264296	     -6.49298851	    -11.83837632	    -54.43703786	     -7.18304620	    -17.39115482	     16.56179868	    -17.67668037	     14.28415434	     40.89743144
      2.18000000	      9.80148213	     -1.46912504	      4.19612327	      0.58058122	      1.01295503	      0.04460822	      1.58792039	     -0.14892242	    -17.51834390	    -19.87143935	     -0.47480611	     10.49445676	      3.67923432	      0.97554660	     -6.32779709	    -12.05112661	    -53.85436731	     -6.63979778	    -17.10696327	     16.71459357	    -17.74678567	     14.16659264	     41.16546494
      2.18500000	      9.81824481	     -1.45692308	      3.86585936	      0.58655759	      1.01409400	      0.04506949	      1.01740510	     -0.09430705	    -17.29352698	    -19.49062056	     -0.36957293	     10.73903441	      3.54896466	      1.50709360	     -6.15865303	    -12.23152011	    -53.19074499	     -6.15662370	    -16.76540282	     16.87072815	    -17.83427175	     14.05437070	     41.46035414
      2.19000000	      9.82298720	     -1.45494686	      3.53662647	      0.59251599	      1.01514427	      0.04552187	      0.46252500	     -0.03659352	    -17.07336717	    -19.11046181	     -0.27063816	     10.97670840	      3.41150004	      2.04239621	     -6.00851165	    -12.42164637	    -52.47972625	     -5.70178446	    -16.45171101	     17.01307130	    -17.90702959	     13.95301662	     41.75622219
      2.19500000	      9.83144914	     -1.45189615	      3.20005734	      0.59846667	      1.01615694	      0.04598198	     -0.09505388	      0.01472639	    -16.84427729	    -18.73197614	     -0.16773985	     11.20483368	      3.26517631	      2.55286258	     -5.86178541	    -12.61822705	    -51.70363419	     -5.29874039	    -16.14718953	     17.14247871	    -17.98452726	     13.84460869	     42.04893934
      2.20000000	      9.83163318	     -1.45962355	      2.85767556	      0.60441619	      1.01708780	      0.04643545	     -0.64052555	      0.06933191	    -16.60987137	    -18.35608097	     -0.07771006	     11.42943800	      3.14417053	      3.05508721	     -5.73318534	    -12.82695449	    -50.87444930	     -4.92990587	    -15.88288384	     17.24816740	    -18.04987559	     13.74850519	     42.33981085
      2.20500000	      9.83414147	     -1.47489085	      2.52718683	      0.61032393	      1.01796356	      0.04689204	     -1.18451052	      0.12979363	    -16.36151914	    -17.98934684	      0.05924130	     11.62931881	      2.95116756	      3.54616144	     -5.61661048	    -13.00033928	    -49.99563425	     -4.63711950	    -15.58001054	     17.36240905	    -18.12567185	     13.66162466	     42.66992069
      2.21000000	      9.81364715	     -1.50120647	      2.18556547	      0.61622281	      1.01873550	      0.04738364	     -1.69703016	      0.20026343	    -16.07925342	    -17.63933221	      0.33365369	     11.77498480	      1.47968724	      4.04469152	     -5.52684389	    -13.20082280	    -49.07550258	     -4.35502738	    -15.28080982	     17.75082785	    -18.17165864	     13.57565509	     42.95886054
      2.21500000	      9.81975695	     -1.52881271	      1.84446073	      0.62213718	      1.01947947	      0.04782475	     -2.24506248	      0.25544717	    -15.83364311	    -17.27072548	      0.45827354	     12.07546508	      1.45395024	      4.49259932	     -5.43560626	    -13.40717543	    -48.09317617	     -4.19710198	    -15.16662936	     17.76144451	    -18.24746824	     13.49998214	     43.26847634
